<svg xmlns="http://www.w3.org/2000/svg" width="500" height="500" style="width:100%;height:100%;transform:translate3d(0,0,0);content-visibility:visible" viewBox="0 0 500 500"><defs><clipPath id="c"><path d="M0 0h500v500H0z"/></clipPath><clipPath id="f"><path d="M0 0h500v500H0z"/></clipPath><clipPath id="d"><path d="M0 0h500v500H0z"/></clipPath><mask id="g" mask-type="alpha"><use xmlns:ns1="http://www.w3.org/1999/xlink" ns1:href="#a"/></mask><mask id="e" mask-type="alpha"><use xmlns:ns2="http://www.w3.org/1999/xlink" ns2:href="#b"/></mask><g id="a" style="display:block"><path fill="red" d="m408.537 139.782-317.564.15V360.18l317.638-.15-.074-220.248z"/><g fill-opacity="0"><path fill="#131432" d="m408.54 139.774-317.578.146v220.245l317.634-.146-.056-220.245z"/><path stroke="#131432" stroke-width="0" d="m408.54 139.774-317.578.146v220.245l317.634-.146-.056-220.245z"/></g></g><g id="b" style="display:block"><path fill="red" d="m408.537 139.782-317.564.15V360.18l317.638-.15-.074-220.248z"/><g fill-opacity="0"><path fill="#131432" d="m408.54 139.774-317.578.146v220.245l317.634-.146-.056-220.245z"/><path stroke="#131432" stroke-width="0" d="m408.54 139.774-317.578.146v220.245l317.634-.146-.056-220.245z"/></g></g></defs><g clip-path="url(#c)"><g fill="none" clip-path="url(#d)" opacity="0" style="display:block"><g mask="url(#e)" style="display:block"><path d="M154.628 139.67h-61.71m61.71 72.462h-61.71m61.71 74.568h-61.71m61.71 73.865h-61.71"/><path stroke="#121330" stroke-linecap="round" stroke-linejoin="round" stroke-width="13.09" d="M154.628 139.67h-61.71m61.71 72.462h-61.71m61.71 74.568h-61.71m61.71 73.865h-61.71"/><path d="M407.078 139.67h-61.71m61.71 72.462h-61.71m61.71 74.568h-61.71m61.71 73.865h-61.71"/><path stroke="#121330" stroke-linecap="round" stroke-linejoin="round" stroke-width="13.09" d="M407.078 139.67h-61.71m61.71 72.462h-61.71m61.71 74.568h-61.71m61.71 73.865h-61.71"/><path d="m345.581 139.931-190.833.292v220.245l190.893-.292-.06-220.245z"/><path stroke="#121330" stroke-linecap="round" stroke-linejoin="round" stroke-width="13.09" d="m345.581 139.931-190.833.292v220.245l190.893-.292-.06-220.245z"/><path stroke="#07A889" stroke-linecap="round" stroke-linejoin="round" stroke-width="13.09" d="M233.168 207.925v86.02l43.01-44.088-43.01-41.932z"/><path d="M154.628-81.925h-61.71m61.71 72.462h-61.71m61.71 74.568h-61.71m61.71 73.865h-61.71"/><path stroke="#121330" stroke-linecap="round" stroke-linejoin="round" stroke-width="13.09" d="M154.628-81.925h-61.71m61.71 72.462h-61.71m61.71 74.568h-61.71m61.71 73.865h-61.71"/><path d="M407.078-81.925h-61.71m61.71 72.462h-61.71m61.71 74.568h-61.71m61.71 73.865h-61.71"/><path stroke="#121330" stroke-linecap="round" stroke-linejoin="round" stroke-width="13.09" d="M407.078-81.925h-61.71m61.71 72.462h-61.71m61.71 74.568h-61.71m61.71 73.865h-61.71"/><path d="m345.581-81.664-190.833.292v220.245l190.893-.292-.06-220.245z"/><path stroke="#121330" stroke-linecap="round" stroke-linejoin="round" stroke-width="13.09" d="m345.581-81.664-190.833.292v220.245l190.893-.292-.06-220.245z"/><path stroke="#07A889" stroke-linecap="round" stroke-linejoin="round" stroke-width="13.09" d="M233.168-13.67v86.02l43.01-44.088-43.01-41.932z"/></g><g opacity="1" style="display:block"><path d="m408.54 139.774-317.578.146v220.245l317.634-.146-.056-220.245z"/><path stroke="#121330" stroke-linecap="round" stroke-linejoin="round" stroke-width="13.09" d="m408.54 139.774-317.578.146v220.245l317.634-.146-.056-220.245z"/></g></g><g fill="none" clip-path="url(#f)" style="display:block"><g mask="url(#g)" style="display:block"><path d="M154.628 139.67h-61.71m61.71 72.462h-61.71m61.71 74.568h-61.71m61.71 73.865h-61.71"/><path stroke="#121330" stroke-linecap="round" stroke-linejoin="round" stroke-width="13.09" d="M154.628 139.67h-61.71m61.71 72.462h-61.71m61.71 74.568h-61.71m61.71 73.865h-61.71"/><path d="M407.078 139.67h-61.71m61.71 72.462h-61.71m61.71 74.568h-61.71m61.71 73.865h-61.71"/><path stroke="#121330" stroke-linecap="round" stroke-linejoin="round" stroke-width="13.09" d="M407.078 139.67h-61.71m61.71 72.462h-61.71m61.71 74.568h-61.71m61.71 73.865h-61.71"/><path d="m345.581 139.931-190.833.292v220.245l190.893-.292-.06-220.245z"/><path stroke="#121330" stroke-linecap="round" stroke-linejoin="round" stroke-width="13.09" d="m345.581 139.931-190.833.292v220.245l190.893-.292-.06-220.245z"/><path stroke="#07A889" stroke-linecap="round" stroke-linejoin="round" stroke-width="13.09" d="M233.168 207.925v86.02l43.01-44.088-43.01-41.932z"/><path d="M154.628-81.925h-61.71m61.71 72.462h-61.71m61.71 74.568h-61.71m61.71 73.865h-61.71"/><path stroke="#121330" stroke-linecap="round" stroke-linejoin="round" stroke-width="13.09" d="M154.628-81.925h-61.71m61.71 72.462h-61.71m61.71 74.568h-61.71m61.71 73.865h-61.71"/><path d="M407.078-81.925h-61.71m61.71 72.462h-61.71m61.71 74.568h-61.71m61.71 73.865h-61.71"/><path stroke="#121330" stroke-linecap="round" stroke-linejoin="round" stroke-width="13.09" d="M407.078-81.925h-61.71m61.71 72.462h-61.71m61.71 74.568h-61.71m61.71 73.865h-61.71"/><path d="m345.581-81.664-190.833.292v220.245l190.893-.292-.06-220.245z"/><path stroke="#121330" stroke-linecap="round" stroke-linejoin="round" stroke-width="13.09" d="m345.581-81.664-190.833.292v220.245l190.893-.292-.06-220.245z"/><path stroke="#07A889" stroke-linecap="round" stroke-linejoin="round" stroke-width="13.09" d="M233.168-13.67v86.02l43.01-44.088-43.01-41.932z"/></g><g style="display:block"><path d="m408.54 139.774-317.578.146v220.245l317.634-.146-.056-220.245z"/><path stroke="#121330" stroke-linecap="round" stroke-linejoin="round" stroke-width="13.09" d="m408.54 139.774-317.578.146v220.245l317.634-.146-.056-220.245z"/></g></g><g class="com" style="display:none"><path/><path/><path/><path/><path/><path/><path/><path/><path/><path/><path/><path/></g></g></svg>